# xmcd
#
# Track frame offsets:
#	150
#	18837
#	31174
#	45319
#	59868
#	71575
#	82126
#	86073
#	90421
#	94437
#	111041
#	123163
#	137033
#	153078
#
# Disc length: 2215 seconds
#
# Revision: 0
# Processed by: cddbd v1.5.2PL0 Copyright (c) Steve Scherf et al.
# Submitted via: EasyCDDAExtractor 16.0.6.1
#
DISCID=b008a50e
DTITLE=Συλλογικός δίσκος - Όλα τα ελαφρά ελλ. τραγούδια 09
DYEAR=2010
DGENRE=Ελαφρά
TTITLE0=Λήδα - Άσ' τα τα μαλάκια σου[Μ.Σουγιούλ/Αλ.Σακελλάριος-Χρ.Γιαννακόπουλ
TTITLE0=ος]
TTITLE1=Φρύνη - Λίγες καρδιές αγαπούνε [Μ. Σουγιούλ-Κ. Κοφινιώτης]
TTITLE2=Πετρόπουλος Γιάννης - Αθήνα μου, φως μου [Γ. Μουζάκης-Γ. Γιαννακόπουλο
TTITLE2=ς]
TTITLE3=Τόλη Μαριάννα - Όταν σφυρίζω [Harold Adamson-Jim McHugh, απ.Πωλ Μενεστ
TTITLE3=ρέλ]
TTITLE4=Χορωδία - Κάτω στο γιαλό [παραδ., διασκ. Γ. Μουζάκης]
TTITLE5=Τζανετής Πάνος - Η παλιοπαρέα [Γ. Μουζάκης-Ηλ. Λυμπερόπουλος]
TTITLE6=Κορώνη Γεωργία - Βλέπω στον ουρανό [Θεόφρ. Σακελλαρίδης]
TTITLE7=Κορώνη Γεωργία - Πάν' οι ελπίδες [Ν. Χατζηαποστόλου]
TTITLE8=Κορώνη Γεωργία - Εγώ είμαι η νέα γυναίκα [Θεόφρ. Σακελλαρίδης]]
TTITLE9=Γιοβάννα - Μαραμένα τα γιούλια κι οι βιόλες [Αττίκ]
TTITLE10=Μάνου Αφροδίτη - Το παλιό μεράκι [Σπήλιος Μεντής]
TTITLE11=Προέδρου Βέττα - Όνειρο φτωχό μου [Χρήστος Χαιρόπουλος]
TTITLE12=Βογιατζής Γιάννης - Το κορίτσι που αγαπώ [Γ. Μουζάκης-Γ. Πολίτης]
TTITLE13=Γκρέκα Στέλλα - Η καρδιά μου σού ανήκει [Gilbert Ray-Aguirre Lara, απ
TTITLE13=Κ.Κιούσης]
EXTD=
EXTT0=
EXTT1=
EXTT2=
EXTT3=
EXTT4=
EXTT5=
EXTT6=
EXTT7=
EXTT8=
EXTT9=
EXTT10=
EXTT11=
EXTT12=
EXTT13=
PLAYORDER=
